<svg width="32" height="32" viewBox="0 0 32 32" fill="none" xmlns="http://www.w3.org/2000/svg">
<path d="M14 8C13.4477 8 13 8.44772 13 9C13 9.55229 13.4477 10 14 10H18C18.5523 10 19 9.55229 19 9C19 8.44772 18.5523 8 18 8H14Z" fill="#242729"/>
<path fill-rule="evenodd" clip-rule="evenodd" d="M4.62434 15H5V28H3C2.44772 28 2 28.4477 2 29C2 29.5523 2.44772 30 3 30L29 30C29.5523 30 30 29.5523 30 29C30 28.4477 29.5523 28 29 28H27V15H27.3757C28.825 15 30 13.825 30 12.3757C30 11.4797 29.543 10.6457 28.7878 10.1636L17.6143 3.03055C16.6298 2.40209 15.3702 2.40209 14.3857 3.03055L3.2122 10.1636C2.45705 10.6457 2 11.4797 2 12.3757C2 13.825 3.17496 15 4.62434 15ZM4.62434 13H27.3757C27.7205 13 28 12.7205 28 12.3757C28 12.1625 27.8913 11.9641 27.7116 11.8494L16.5381 4.71632C16.2099 4.50683 15.7901 4.50683 15.4619 4.71632L4.28839 11.8494C4.10873 11.9641 4 12.1625 4 12.3757C4 12.7205 4.27953 13 4.62434 13ZM7 28V15H11V28H7ZM13 28V15H19V28L13 28ZM21 28V15H25V28H21Z" fill="#242729"/>
</svg>
