<svg width="32" height="32" viewBox="0 0 32 32" fill="none" xmlns="http://www.w3.org/2000/svg">
<path d="M20.419 3.00507C20.0285 2.61453 19.3953 2.61452 19.0048 3.00504C18.6143 3.39555 18.6142 4.02872 19.0048 4.41925C20.7576 6.17217 24.6793 11.099 24.1422 17.0064C23.5967 23.0072 20.0806 26.5282 19.0184 27.5904C18.6278 27.9809 18.6278 28.6141 19.0184 29.0046C19.4089 29.3952 20.0421 29.3952 20.4326 29.0046L20.4353 29.0019C21.5743 27.8629 25.5224 23.9148 26.134 17.1874C26.7546 10.3612 22.2836 4.86972 20.419 3.00507Z" fill="white"/>
<path d="M16.3713 8.0592C15.9807 7.66866 15.3476 7.66865 14.957 8.05917C14.5665 8.44968 14.5665 9.08285 14.957 9.47338C15.9663 10.4827 18.1628 13.2679 17.8637 16.5578C17.5561 19.9413 15.5755 21.9267 14.965 22.5372C14.5745 22.9277 14.5745 23.5609 14.965 23.9514C15.3556 24.3419 15.9887 24.3419 16.3793 23.9514L16.3819 23.9487C17.0692 23.2614 19.4818 20.8488 19.8555 16.7389C20.2381 12.5302 17.4923 9.18023 16.3713 8.0592Z" fill="white"/>
<path d="M10.0592 11.0668C10.4497 10.6763 11.0829 10.6763 11.4734 11.0668C12.1519 11.7453 13.871 13.8207 13.63 16.4716C13.3979 19.0237 11.8992 20.5225 11.4807 20.941L11.4781 20.9436C11.0876 21.3341 10.4544 21.3341 10.0639 20.9436C9.67334 20.553 9.67334 19.9199 10.0639 19.5294C10.4055 19.1878 11.4722 18.1162 11.6382 16.2905C11.7956 14.5584 10.6259 13.0477 10.0592 12.481C9.66865 12.0905 9.66867 11.4573 10.0592 11.0668Z" fill="white"/>
<path d="M6.47446 13.0733C6.08394 12.6828 5.45077 12.6828 5.06024 13.0733C4.66971 13.4638 4.6697 14.097 5.06021 14.4875C5.1687 14.596 5.37203 14.8322 5.53231 15.1419C5.69185 15.4502 5.78364 15.7813 5.75354 16.1124C5.68205 16.8988 5.22493 17.3608 5.06269 17.5231C4.67216 17.9136 4.67216 18.5467 5.06269 18.9373C5.45321 19.3278 6.08638 19.3278 6.4769 18.9373L6.47937 18.9348C6.7186 18.6956 7.60778 17.8065 7.74533 16.2935C7.89185 14.6817 6.85768 13.4566 6.47446 13.0733Z" fill="white"/>
</svg>
